<?xml version="1.0" standalone="no"?>
<!DOCTYPE svg PUBLIC "-//W3C//DTD SVG 20010904//EN"
 "http://www.w3.org/TR/2001/REC-SVG-20010904/DTD/svg10.dtd">
<svg version="1.0" xmlns="http://www.w3.org/2000/svg"
 width="700.000000pt" height="700.000000pt" viewBox="0 0 700.000000 700.000000"
 preserveAspectRatio="xMidYMid meet">
<metadata>
Created by potrace 1.11, written by Peter Selinger 2001-2013
</metadata>
<g transform="translate(0.000000,700.000000) scale(0.100000,-0.100000)"
fill="#000000" stroke="none">
<path d="M881 6115 c-4 -5 -7 -136 -7 -290 l1 -280 293 -3 292 -2 -2 292 -3
293 -283 0 c-182 0 -286 -3 -291 -10z"/>
<path d="M2044 6119 c-2 -3 -3 -135 -3 -293 l1 -286 291 0 292 0 0 292 0 293
-288 0 c-159 0 -290 -3 -293 -6z"/>
<path d="M3210 5833 l0 -293 290 0 290 0 0 293 0 292 -290 0 -290 0 0 -292z"/>
<path d="M4381 6120 c-3 -3 -6 -133 -6 -290 l0 -285 292 -3 292 -2 0 290 c0
220 -3 290 -12 291 -36 5 -560 3 -566 -1z"/>
<path d="M5544 6121 c-2 -2 -4 -134 -4 -293 l0 -288 290 0 c225 0 290 3 291
13 4 41 3 567 -1 568 -15 4 -572 4 -576 0z"/>
<path d="M884 4952 c-11 -8 -14 -564 -3 -572 4 -3 135 -5 291 -5 l283 0 3 293
2 292 -282 0 c-156 -1 -288 -4 -294 -8z"/>
<path d="M3210 4667 l0 -292 290 0 290 0 0 292 0 293 -290 -1 -290 0 0 -292z"/>
<path d="M5544 4947 c-2 -7 -3 -138 -2 -292 l3 -280 287 0 c183 0 289 4 291
10 2 6 3 136 3 290 l-1 280 -288 2 c-217 1 -289 -1 -293 -10z"/>
<path d="M875 3500 l0 -290 292 0 293 0 0 290 0 290 -293 0 -292 0 0 -290z"/>
<path d="M2041 3500 l0 -290 292 0 292 0 0 290 0 290 -292 0 -292 0 0 -290z"/>
<path d="M3210 3500 l0 -290 290 0 290 0 0 290 0 290 -290 0 -290 0 0 -290z"/>
<path d="M4375 3500 l0 -290 292 0 292 0 0 290 0 290 -292 0 -292 0 0 -290z"/>
<path d="M5540 3500 l0 -290 293 0 292 0 0 290 0 290 -292 0 -293 0 0 -290z"/>
<path d="M881 2620 c-4 -3 -7 -132 -7 -288 1 -275 1 -283 21 -287 11 -3 142
-4 290 -2 l270 2 0 290 0 290 -283 0 c-156 0 -287 -2 -291 -5z"/>
<path d="M3210 2333 l0 -291 290 -1 290 0 0 292 0 292 -290 0 -290 0 0 -292z"/>
<path d="M5542 2335 l3 -290 290 0 290 0 0 290 0 290 -293 0 -292 0 2 -290z"/>
<path d="M877 1453 c-2 -5 -3 -136 -3 -293 l1 -285 2615 -1 c1438 0 2620 1
2625 3 6 2 10 108 10 291 l0 287 -2622 3 c-1442 1 -2623 -1 -2626 -5z"/>
</g>
</svg>
